Coordinates
version=1
nRows=7
nColumns=42
inDegrees=yes

Units are S.I. units (second, meters, Newtons, ...)
If the header above contains a line with 'inDegrees', this indicates whether rotational values are in degrees (yes) or radians (no).

endheader
time	pelvis_tilt	pelvis_list	pelvis_rotation	pelvis_tx	pelvis_ty	pelvis_tz	hip_flexion_r	hip_adduction_r	hip_rotation_r	knee_angle_r	knee_adduction_r	knee_angle_r_beta	ankle_angle_r	subtalar_angle_r	mtp_angle_r	hip_flexion_l	hip_adduction_l	hip_rotation_l	knee_angle_l	knee_adduction_l	knee_angle_l_beta	ankle_angle_l	subtalar_angle_l	mtp_angle_l	lumbar_extension	lumbar_bending	lumbar_rotation	arm_flex_r	arm_add_r	arm_rot_r	elbow_flex_r	pro_sup_r	wrist_flex_r	wrist_dev_r	arm_flex_l	arm_add_l	arm_rot_l	elbow_flex_l	pro_sup_l	wrist_flex_l	wrist_dev_l
      0.37000000	      2.19060903	      0.30839145	      1.76279524	     -0.77302883	      0.95713221	     -0.11969534	     21.85037155	     -7.13088107	    -16.23799681	     16.17005880	      2.70017166	      0.28222077	      7.68491016	     22.15826080	     -9.08060488	    -14.38819045	     -1.66640306	     -6.85239729	     16.51347111	     -2.38657529	      0.28821444	     17.52980352	     24.31936131	     -9.08060488	    -10.11338317	      1.90648457	     -4.37923468	     -9.94267322	    -11.08948144	     -0.06802922	     22.45473280	     90.00000001	      0.00000000	      0.00000000	     10.47718038	    -23.07717513	     13.85922291	     59.87512766	     90.00000001	      0.00000000	      0.00000000
      0.38000000	      2.20199188	      0.15091581	      1.80938471	     -0.76061289	      0.95667746	     -0.11815357	     21.71977878	     -6.81597755	    -15.57088086	     17.03371562	      2.57469248	      0.29729442	      7.40822646	     22.09871659	     -9.07002928	    -14.70612062	     -1.96563739	     -6.36056966	     17.33397437	     -2.49180946	      0.30253493	     17.16022195	     24.25782318	     -9.07002928	     -9.99788527	      2.24168247	     -4.34544213	    -10.13074931	    -11.12498365	     -0.03847210	     22.45562004	     90.00000001	      0.00000000	      0.00000000	     10.23660055	    -23.04525443	     13.83889307	     59.96226924	     90.00000001	      0.00000000	      0.00000000
      0.39000000	      2.07640228	     -0.26141090	      1.79094495	     -0.74846149	      0.95621479	     -0.11623484	     21.94324324	     -6.23377311	    -15.41484640	     18.35933757	      2.28130871	      0.32043089	      6.52849680	     21.31133617	     -9.03834227	    -14.50548546	     -2.74789089	     -6.49006141	     18.85165038	     -2.31727143	      0.32902337	     15.96025331	     23.53260564	     -9.03834227	     -9.79691654	      2.82284508	     -4.24313452	    -10.14321564	    -11.23552005	      0.15220262	     22.46010921	     90.00000001	      0.00000000	      0.00000000	      9.70094691	    -23.08278112	     13.53783380	     60.80605522	     90.00000001	      0.00000000	      0.00000000
      0.40000000	      2.03964671	     -0.54307760	      1.72636900	     -0.73619240	      0.95607142	     -0.11428113	     21.93122714	     -5.78467745	    -14.77970470	     19.49308040	      2.18920538	      0.34021843	      5.96424116	     20.84137777	     -9.02066403	    -14.39957445	     -3.31086508	     -6.39603146	     20.32332381	     -2.20453980	      0.35470892	     14.89138022	     23.06757836	     -9.02066403	     -9.69749529	      3.24790975	     -4.15382118	    -10.12857916	    -11.28215479	      0.29052354	     22.38421032	     90.00000001	      0.00000000	      0.00000000	      9.12593155	    -23.10581015	     13.26335220	     61.36816727	     90.00000001	      0.00000000	      0.00000000
      0.41000000	      1.95740511	     -0.82168304	      1.61365297	     -0.72404951	      0.95611611	     -0.11229523	     21.96672118	     -5.33198179	    -14.00648433	     20.64482926	      2.15488951	      0.36032024	      5.51593943	     20.11741103	     -9.00103553	    -14.03636590	     -3.83531074	     -6.43608531	     22.10994565	     -2.16983454	      0.38589135	     13.43756338	     22.34455069	     -9.00103553	     -9.57367373	      3.67430018	     -4.03271755	    -10.05497945	    -11.36186211	      0.41491169	     22.36197158	     90.00000001	      0.00000000	      0.00000000	      8.43945380	    -23.07994782	     12.93430336	     61.91109290	     90.00000001	      0.00000000	      0.00000000
      0.42000000	      2.11119095	     -1.00517978	      1.44136278	     -0.71191933	      0.95659037	     -0.11034212	     21.71176099	     -5.01018026	    -13.03283492	     21.78689402	      2.28259608	      0.38025303	      5.31206759	     19.84114873	     -8.99285913	    -13.93765681	     -4.24823615	     -6.08389001	     23.84336869	     -1.90646883	      0.41614529	     12.27563248	     21.99844785	     -8.99285913	     -9.74610407	      4.00876988	     -3.82557580	     -9.86769861	    -11.46980264	      0.45237399	     22.41112782	     90.00000001	      0.00000000	      0.00000000	      7.95287421	    -23.03258006	     12.81205521	     62.04698271	     90.00000001	      0.00000000	      0.00000000
      0.43000000	      1.99264249	     -1.24752273	      1.25491084	     -0.69992766	      0.95699452	     -0.10822149	     21.70124396	     -4.58726635	    -12.15023883	     22.84275843	      2.40862719	      0.39868134	      5.32142783	     18.81111326	     -8.97802944	    -13.06311946	     -4.73478863	     -6.49106143	     26.32284363	     -1.97622617	      0.45942029	      9.91787294	     20.74938207	     -8.97802944	     -9.62531562	      4.35354710	     -3.63386920	     -9.79201404	    -11.46621940	      0.53189428	     22.43664400	     90.00000001	      0.00000000	      0.00000000	      7.17919313	    -22.97371375	     12.53002691	     62.38022566	     90.00000001	      0.00000000	      0.00000000
